IKResults-ET5
version=1
nRows=14
nColumns=24
inDegrees=yes

Units are S.I. units (second, meters, Newtons, ...)
If the header above contains a line with 'inDegrees', this indicates whether rotational values are in degrees (yes) or radians (no).

endheader
time	pelvis_tilt	pelvis_list	pelvis_rotation	pelvis_tx	pelvis_ty	pelvis_tz	hip_flexion_r	hip_adduction_r	hip_rotation_r	knee_angle_r	ankle_angle_r	subtalar_angle_r	mtp_angle_r	hip_flexion_l	hip_adduction_l	hip_rotation_l	knee_angle_l	ankle_angle_l	subtalar_angle_l	mtp_angle_l	lumbar_extension	lumbar_bending	lumbar_rotation
      4.65000000	      0.54655231	      3.51616729	    188.58488508	      1.28218095	      0.99013789	     -0.18299952	    199.76125723	   -185.32830814	   -182.83794380	    -22.97546740	      8.45850764	      1.55541872	      0.00000000	     11.71670204	     -4.76919834	      2.81022166	    -66.82320652	      0.27109668	     -0.76546101	      0.00000000	    -13.99604378	      5.46247769	     -0.30697731
      4.66000000	      0.51593502	      3.40657914	    188.58615883	      1.26806452	      0.99264897	     -0.18327776	    198.50681738	   -185.40509549	   -182.89824757	    -22.43219207	      8.91419766	      1.81384696	      0.00000000	     13.56342769	     -4.45852595	      2.65648376	    -67.27134111	      2.07549065	     -1.76096428	      0.00000000	    -14.10177816	      5.25298030	     -0.05781747
      4.67000000	      0.48057235	      3.30638306	    188.49859317	      1.25368513	      0.99517406	     -0.18382017	    197.11537624	   -185.57665974	   -182.53328432	    -21.64480760	      9.30117834	      1.58091540	      0.00000000	     15.30657943	     -4.23050320	      2.41870961	    -67.18065360	      3.77715124	     -1.93808995	      0.00000000	    -14.20258115	      5.00305672	      0.23555372
      4.68000000	      0.38911593	      3.19860810	    188.39183178	      1.23918053	      0.99773901	     -0.18425457	    195.72133812	   -185.70802579	   -182.33377029	    -20.99142288	      9.71099176	      1.64805115	      0.00000000	     16.95964424	     -4.03056737	      2.07645711	    -66.80149668	      5.45196270	     -1.68355273	      0.00000000	    -14.35965648	      4.75368305	      0.55594511
      4.69000000	      0.35075612	      3.01079652	    188.03140734	      1.22484178	      1.00012941	     -0.18482344	    194.39646050	   -185.78053750	   -181.83873876	    -20.36423257	     10.10963710	      1.72586926	      0.00000000	     18.43375858	     -3.74142548	      1.56806328	    -65.91242075	      7.11113937	     -1.01753749	      0.00000000	    -14.50185724	      4.39353022	      1.04239467
      4.70000000	      0.24472738	      2.94055884	    187.72710357	      1.21069744	      1.00242138	     -0.18538016	    192.89309524	   -186.01369303	   -181.05372935	    -19.42819845	     10.25989454	      1.26060385	      0.00000000	     19.84977082	     -3.62243714	      1.11660940	    -64.75261309	      8.74581984	      0.20170883	      0.00000000	    -14.73504630	      4.17211057	      1.53825958
      4.71000000	      0.11368630	      2.81431523	    187.35636149	      1.19655166	      1.00441034	     -0.18577972	    191.46688768	   -186.10793832	   -180.61518771	    -18.73538354	     10.66297913	      1.33809526	      0.00000000	     21.12780630	     -3.43293994	      0.62236051	    -63.30765654	     10.40077537	      1.64823294	      0.00000000	    -14.99824685	      3.90556993	      2.05909477
      4.72000000	     -0.08471828	      2.63144973	    186.81962021	      1.18215184	      1.00636170	     -0.18623664	    189.93295091	   -186.14167547	   -180.05939175	    -18.01814984	     10.98029641	      1.52557968	      0.00000000	     22.16802509	     -3.25503804	     -0.01916137	    -61.49032560	     11.82034361	      3.03887613	      0.00000000	    -15.32389946	      3.56008315	      2.67757763
      4.73000000	     -0.23934844	      2.51142921	    186.31368268	      1.16818245	      1.00782552	     -0.18671993	    188.51494841	   -186.20235328	   -179.61684391	    -17.32970982	     11.27249686	      1.76078254	      0.00000000	     23.26430200	     -3.13043422	     -0.61201664	    -59.53216905	     13.02962251	      4.17965547	      0.00000000	    -15.62982622	      3.26600899	      3.29948369
      4.74000000	     -0.41174826	      2.38152261	    185.76156684	      1.15427050	      1.00892102	     -0.18722376	    187.15217911	   -186.21850109	   -179.28518264	    -16.83428558	     11.69758406	      2.23777143	      0.00000000	     24.25133958	     -3.02451080	     -1.16093056	    -57.37534856	     13.81312348	      4.98274833	      0.00000000	    -15.95865772	      2.95099252	      3.96699049
      4.75000000	     -0.60876711	      2.30973010	    185.20132157	      1.14044041	      1.00968119	     -0.18776776	    185.72458629	   -186.32352622	   -178.67084351	    -16.29564122	     12.14029636	      2.28298093	      0.00000000	     25.17133262	     -2.97646971	     -1.63538363	    -55.09864955	     14.52050257	      5.26246481	      0.00000000	    -16.33719770	      2.67562554	      4.67818596
      4.76000000	     -0.78651934	      2.21638915	    184.60276251	      1.12659835	      1.01019592	     -0.18828815	    184.36774235	   -186.32230508	   -178.37522286	    -15.76408563	     12.62851685	      2.92714992	      0.00000000	     25.97219764	     -2.93993624	     -2.14734384	    -52.59332158	     15.11500342	      5.12906882	      0.00000000	    -16.65831976	      2.36927743	      5.29434908
      4.77000000	     -0.96035886	      2.17317996	    183.98833868	      1.11274135	      1.01035576	     -0.18882234	    183.03200067	   -186.37363943	   -177.91219025	    -15.28925033	     12.99472680	      3.00302791	      0.00000000	     26.72649738	     -2.93950167	     -2.52831179	    -50.04488743	     15.65872176	      4.82727621	      0.00000000	    -16.91045934	      2.08486818	      5.54208963
      4.78000000	     -1.12723390	      2.17320702	    183.38777291	      1.09896685	      1.01023085	     -0.18931332	    181.74506724	   -186.43034082	   -177.49029960	    -14.87842911	     13.50062737	      3.53222216	      0.00000000	     27.43589794	     -2.98984374	     -2.87695319	    -47.37349826	     15.97508203	      4.15171089	      0.00000000	    -17.27601739	      1.87885177	      6.47649264
